<svg width="38" height="38" viewBox="0 0 38 38" fill="none" xmlns="http://www.w3.org/2000/svg">
<path d="M28.7984 28.2368C26.3665 28.2368 24.3613 30.1994 24.3613 32.6739C24.3613 35.1057 26.3239 37.1109 28.7984 37.1109C31.2302 37.1109 33.2354 35.1484 33.2354 32.6739C33.1928 30.242 31.2302 28.2368 28.7984 28.2368Z" fill="#F5874F"/>
<path d="M36.6057 7.07543C36.5203 7.07543 36.3924 7.03277 36.2644 7.03277H9.38607L8.95943 4.17428C8.70345 2.29707 7.08222 0.88916 5.16234 0.88916H1.70656C0.767951 0.88916 0 1.65711 0 2.59572C0 3.53433 0.767951 4.30228 1.70656 4.30228H5.16234C5.37566 4.30228 5.54631 4.47293 5.58898 4.68625L8.23414 22.6904C8.57545 24.9516 10.538 26.6582 12.8418 26.6582H30.5901C32.8086 26.6582 34.7285 25.0796 35.1978 22.9038L37.9709 9.03798C38.1416 8.14203 37.5443 7.24609 36.6057 7.07543Z" fill="#F5874F"/>
<path d="M17.9194 32.4605C17.8341 30.114 15.8716 28.2368 13.5251 28.2368C11.0505 28.3648 9.17333 30.4127 9.25866 32.8445C9.34398 35.191 11.2639 37.0683 13.6104 37.0683H13.6957C16.1276 36.9403 18.0474 34.8924 17.9194 32.4605Z" fill="#F5874F"/>
</svg>
