<svg width="157" height="114" viewBox="0 0 157 114" fill="none" xmlns="http://www.w3.org/2000/svg">
<rect x="48.4336" y="0.583862" width="28.7795" height="55.5742" fill="#F5874F"/>
<path d="M80.1895 30.3552H104.999V50.2031C104.999 53.4917 102.333 56.1575 99.045 56.1575H80.1895V30.3552Z" fill="#F5874F"/>
<path d="M80.1895 27.3787H104.999V6.53835C104.999 3.24983 102.333 0.583965 99.045 0.583965H80.1895V27.3787Z" fill="#F5874F"/>
<path d="M21.9565 80.216C22.9325 80.488 23.6925 80.984 24.2365 81.704C24.7805 82.408 25.0525 83.288 25.0525 84.344C25.0525 85.832 24.5565 86.984 23.5645 87.8C22.5725 88.6 21.1725 89 19.3645 89H12.2605V71.912H19.1245C20.8685 71.912 22.2205 72.304 23.1805 73.088C24.1565 73.856 24.6445 74.952 24.6445 76.376C24.6445 77.288 24.4045 78.08 23.9245 78.752C23.4605 79.408 22.8045 79.896 21.9565 80.216ZM14.2045 79.496H18.8125C20.0925 79.496 21.0605 79.24 21.7165 78.728C22.3725 78.216 22.7005 77.464 22.7005 76.472C22.7005 74.52 21.4045 73.544 18.8125 73.544H14.2045V79.496ZM19.1965 87.368C20.5405 87.368 21.5245 87.12 22.1485 86.624C22.7885 86.112 23.1085 85.336 23.1085 84.296C23.1085 82.2 21.8045 81.152 19.1965 81.152H14.2045V87.368H19.1965ZM38.4604 76.928V89H36.5644V86.912C36.1804 87.648 35.6444 88.208 34.9564 88.592C34.2684 88.976 33.4924 89.168 32.6284 89.168C31.2044 89.168 30.1244 88.768 29.3884 87.968C28.6524 87.168 28.2844 85.984 28.2844 84.416V76.928H30.2284V84.368C30.2284 85.456 30.4524 86.256 30.9004 86.768C31.3484 87.28 32.0284 87.536 32.9404 87.536C34.0124 87.536 34.8764 87.192 35.5324 86.504C36.1884 85.8 36.5164 84.88 36.5164 83.744V76.928H38.4604ZM51.736 87.464V89H41.536V87.656L49.144 78.464H41.8V76.928H51.472V78.344L43.936 87.464H51.736ZM59.364 89.168C58.228 89.168 57.228 88.912 56.364 88.4C55.5 87.888 54.828 87.16 54.348 86.216C53.884 85.272 53.652 84.168 53.652 82.904C53.652 81.64 53.884 80.536 54.348 79.592C54.828 78.648 55.5 77.92 56.364 77.408C57.228 76.896 58.228 76.64 59.364 76.64C60.5 76.64 61.5 76.896 62.364 77.408C63.228 77.92 63.892 78.648 64.356 79.592C64.836 80.536 65.076 81.64 65.076 82.904C65.076 84.168 64.836 85.272 64.356 86.216C63.892 87.16 63.228 87.888 62.364 88.4C61.5 88.912 60.5 89.168 59.364 89.168ZM59.364 87.56C60.564 87.56 61.484 87.168 62.124 86.384C62.764 85.584 63.084 84.424 63.084 82.904C63.084 81.432 62.756 80.296 62.1 79.496C61.444 78.68 60.532 78.272 59.364 78.272C58.18 78.272 57.26 78.68 56.604 79.496C55.948 80.296 55.62 81.432 55.62 82.904C55.62 84.424 55.94 85.584 56.58 86.384C57.236 87.168 58.164 87.56 59.364 87.56ZM72.715 72.92C72.075 72.92 71.571 73.104 71.203 73.472C70.851 73.824 70.675 74.44 70.675 75.32V76.928H73.627V78.464H70.675V89H68.731V78.464H66.379V76.928H68.731V75.08C68.731 73.816 69.043 72.864 69.667 72.224C70.307 71.568 71.195 71.24 72.331 71.24C72.891 71.24 73.435 71.312 73.963 71.456V73.112C73.515 72.984 73.099 72.92 72.715 72.92ZM87.105 76.928L81.465 90.104C80.873 91.48 80.129 92.488 79.233 93.128C78.337 93.768 77.233 94.208 75.921 94.448L75.513 92.936C76.649 92.68 77.505 92.336 78.081 91.904C78.673 91.488 79.161 90.84 79.545 89.96L80.025 88.88L74.913 76.928H76.953L81.033 86.888L85.161 76.928H87.105ZM90.4924 86.528V89H88.0204V86.528H90.4924ZM98.0849 89.168C96.0529 89.168 94.4449 88.648 93.2609 87.608L93.9089 86.168C94.5649 86.68 95.2289 87.048 95.9009 87.272C96.5729 87.496 97.3249 87.608 98.1569 87.608C99.0689 87.608 99.7569 87.456 100.221 87.152C100.701 86.832 100.941 86.376 100.941 85.784C100.941 85.304 100.781 84.92 100.461 84.632C100.141 84.344 99.6129 84.12 98.8769 83.96L96.8369 83.48C95.8289 83.256 95.0449 82.856 94.4849 82.28C93.9409 81.704 93.6689 81.016 93.6689 80.216C93.6689 79.16 94.0929 78.304 94.9409 77.648C95.7889 76.976 96.9089 76.64 98.3009 76.64C99.1489 76.64 99.9489 76.776 100.701 77.048C101.453 77.32 102.085 77.712 102.597 78.224L101.949 79.64C100.813 78.696 99.5969 78.224 98.3009 78.224C97.4369 78.224 96.7649 78.392 96.2849 78.728C95.8209 79.048 95.5889 79.504 95.5889 80.096C95.5889 80.592 95.7329 80.984 96.0209 81.272C96.3249 81.56 96.8049 81.784 97.4609 81.944L99.5009 82.448C100.621 82.704 101.453 83.104 101.997 83.648C102.541 84.176 102.813 84.872 102.813 85.736C102.813 86.776 102.389 87.608 101.541 88.232C100.693 88.856 99.5409 89.168 98.0849 89.168ZM111.935 76.64C114.831 76.64 116.279 78.232 116.279 81.416V89H114.335V81.512C114.335 80.392 114.111 79.576 113.663 79.064C113.215 78.536 112.511 78.272 111.551 78.272C110.431 78.272 109.535 78.616 108.863 79.304C108.191 79.992 107.855 80.92 107.855 82.088V89H105.911V71.336H107.855V78.896C108.239 78.16 108.783 77.6 109.487 77.216C110.207 76.832 111.023 76.64 111.935 76.64ZM124.942 89.168C123.806 89.168 122.806 88.912 121.942 88.4C121.078 87.888 120.406 87.16 119.926 86.216C119.462 85.272 119.23 84.168 119.23 82.904C119.23 81.64 119.462 80.536 119.926 79.592C120.406 78.648 121.078 77.92 121.942 77.408C122.806 76.896 123.806 76.64 124.942 76.64C126.078 76.64 127.078 76.896 127.942 77.408C128.806 77.92 129.47 78.648 129.934 79.592C130.414 80.536 130.654 81.64 130.654 82.904C130.654 84.168 130.414 85.272 129.934 86.216C129.47 87.16 128.806 87.888 127.942 88.4C127.078 88.912 126.078 89.168 124.942 89.168ZM124.942 87.56C126.142 87.56 127.062 87.168 127.702 86.384C128.342 85.584 128.662 84.424 128.662 82.904C128.662 81.432 128.334 80.296 127.678 79.496C127.022 78.68 126.11 78.272 124.942 78.272C123.758 78.272 122.838 78.68 122.182 79.496C121.526 80.296 121.198 81.432 121.198 82.904C121.198 84.424 121.518 85.584 122.158 86.384C122.814 87.168 123.742 87.56 124.942 87.56ZM139.709 76.64C140.765 76.64 141.701 76.904 142.517 77.432C143.333 77.96 143.965 78.704 144.413 79.664C144.861 80.608 145.085 81.704 145.085 82.952C145.085 84.2 144.861 85.296 144.413 86.24C143.965 87.168 143.333 87.888 142.517 88.4C141.717 88.912 140.781 89.168 139.709 89.168C138.765 89.168 137.941 88.96 137.237 88.544C136.533 88.128 135.997 87.536 135.629 86.768V94.184H133.685V80.312C133.685 79.064 133.621 77.936 133.493 76.928H135.341L135.533 79.256C135.869 78.424 136.397 77.784 137.117 77.336C137.853 76.872 138.717 76.64 139.709 76.64ZM139.349 87.56C140.533 87.56 141.445 87.16 142.085 86.36C142.741 85.56 143.069 84.424 143.069 82.952C143.069 81.48 142.741 80.336 142.085 79.52C141.429 78.688 140.517 78.272 139.349 78.272C138.149 78.272 137.229 78.672 136.589 79.472C135.949 80.272 135.629 81.416 135.629 82.904C135.629 84.392 135.949 85.544 136.589 86.36C137.229 87.16 138.149 87.56 139.349 87.56Z" fill="#F5874F"/>
</svg>
