<svg width="257" height="85" viewBox="0 0 257 85" fill="none" xmlns="http://www.w3.org/2000/svg">
<path d="M90.8455 43.2594C93.3792 43.924 95.3521 45.1908 96.7643 47.0599C98.1765 48.8874 98.8826 51.1926 98.8826 53.9755C98.8826 57.9214 97.6365 60.9119 95.1444 62.9472C92.6938 64.9824 89.1633 66 84.5529 66H67.4819V21.6402H83.8676C88.3534 21.6402 91.8008 22.6371 94.2099 24.6308C96.6605 26.6245 97.8857 29.5112 97.8857 33.2909C97.8857 35.7 97.2627 37.756 96.0167 39.4589C94.8121 41.1619 93.0884 42.4287 90.8455 43.2594ZM70.0986 42.2002H83.5561C87.3358 42.2002 90.2017 41.4111 92.1539 39.8327C94.106 38.2544 95.0821 35.9492 95.0821 32.9171C95.0821 27.0191 91.2401 24.0701 83.5561 24.0701H70.0986V42.2002ZM84.4906 63.5702C88.4365 63.5702 91.3439 62.8225 93.213 61.3273C95.1236 59.7905 96.079 57.4437 96.079 54.287C96.079 47.9321 92.2162 44.7547 84.4906 44.7547H70.0986V63.5702H84.4906ZM132.768 34.8485V66H130.276V60.0812C129.279 62.1164 127.825 63.6948 125.914 64.8162C124.045 65.8962 121.927 66.4361 119.559 66.4361C115.987 66.4361 113.267 65.4393 111.398 63.4456C109.529 61.4103 108.594 58.4406 108.594 54.5362V34.8485H111.148V54.287C111.148 57.5683 111.813 59.9981 113.142 61.5765C114.513 63.1133 116.59 63.8817 119.372 63.8817C122.654 63.8817 125.271 62.8641 127.223 60.8288C129.216 58.7521 130.213 56.0107 130.213 52.6049V34.8485H132.768ZM167.131 63.6948V66H141.4V64.2555L163.143 37.0914H142.334V34.8485H166.383V36.9668L145.013 63.6948H167.131ZM186.753 66.4361C184.012 66.4361 181.582 65.7716 179.464 64.4424C177.345 63.1133 175.705 61.2234 174.542 58.7728C173.42 56.3223 172.86 53.4771 172.86 50.2373C172.86 46.9976 173.42 44.1732 174.542 41.7641C175.705 39.3135 177.345 37.4237 179.464 36.0945C181.582 34.7654 184.012 34.1009 186.753 34.1009C189.495 34.1009 191.904 34.7654 193.98 36.0945C196.099 37.4237 197.719 39.3135 198.84 41.7641C200.003 44.1732 200.584 46.9976 200.584 50.2373C200.584 53.4771 200.003 56.3223 198.84 58.7728C197.719 61.2234 196.099 63.1133 193.98 64.4424C191.904 65.7716 189.495 66.4361 186.753 66.4361ZM186.691 63.8817C190.221 63.8817 192.942 62.6979 194.853 60.3304C196.805 57.9629 197.781 54.5985 197.781 50.2373C197.781 46.0007 196.805 42.6779 194.853 40.2689C192.9 37.8598 190.201 36.6553 186.753 36.6553C183.306 36.6553 180.585 37.8598 178.592 40.2689C176.639 42.6364 175.663 45.9592 175.663 50.2373C175.663 54.6401 176.619 58.0252 178.529 60.3927C180.44 62.7187 183.16 63.8817 186.691 63.8817ZM218.946 22.4502C217.118 22.4502 215.727 22.9486 214.772 23.9455C213.816 24.9008 213.339 26.6868 213.339 29.3035V34.8485H221.625V37.0914H213.339V66H210.722V37.0914H204.492V34.8485H210.722V28.4936C210.722 25.5861 211.428 23.4263 212.84 22.0141C214.252 20.6019 216.184 19.8958 218.634 19.8958C219.797 19.8958 221.002 20.0619 222.248 20.3942V22.9486C221.126 22.6163 220.026 22.4502 218.946 22.4502ZM254.792 34.8485L240.089 69.5513C238.677 72.8741 236.932 75.3039 234.856 76.8407C232.779 78.3775 230.183 79.4782 227.068 80.1428L226.569 78.0245C229.56 77.3184 231.844 76.3838 233.423 75.2208C235.001 74.0579 236.309 72.2095 237.348 69.6759L238.656 66.3738L225.323 34.8485H228.127L240.089 63.6325L252.113 34.8485H254.792Z" fill="#F5874F"/>
<rect y="19.0371" width="25.0943" height="48.4579" fill="#F5874F"/>
<path d="M27.6904 44.9966H49.3234V62.303C49.3234 65.1704 46.9989 67.4949 44.1315 67.4949H27.6904V44.9966Z" fill="#F5874F"/>
<path d="M27.6904 42.4009H49.3234V24.2292C49.3234 21.3617 46.9989 19.0372 44.1315 19.0372H27.6904V42.4009Z" fill="#F5874F"/>
</svg>
